# xmcd
#
# Track frame offsets: 
#        150
#        23180
#        39599
#        53181
#        69444
#        91472
#        106331
#        123518
#        137382
#        155156
#        170755
#        191154
#        210506
#        224028
#        239523
#        255073
#        269165
#        278972
#        295223
#
# Disc length: 4173 seconds
#
# Revision: 0
# Processed by: cddbd v1.5.2PL0 Copyright (c) Steve Scherf et al.
# Submitted via: ExactAudioCopy v0.95b4
#
DISCID=2b104b13
DTITLE=Various Artist - Siempre Te Amare Vol.2
DYEAR=2000
DGENRE=Ballad
TTITLE0=María Ines Navella - Esperando
TTITLE1=Los Continuados - El tren que nos separa
TTITLE2=Roberto Lutti y Domenika - Tu me amas
TTITLE3=Mayte Montenegro - Canción para una esposa triste
TTITLE4=Cuerpos y Almas - Samba Samba
TTITLE5=Kela Gates - Néctar de verano
TTITLE6=Gigliola Cinquetti - A las puertas del cielo
TTITLE7=Solera - Calle del viejo París
TTITLE8=Silvana Di Lorenzo - Palabras palabras
TTITLE9=Karool - Nuestra historia de amor
TTITLE10=Pooh - Debes comprenderme
TTITLE11=Santa Barbara - Mi vida
TTITLE12=Los Brios - Chau chau María
TTITLE13=Palito Ortega - Prometimos no llorar
TTITLE14=Betty Missiego - Todo comenzó
TTITLE15=Matt Monroe - Alguien cantó
TTITLE16=Juan Carlos - Los Perdidos
TTITLE17=Karina - Mi diario
TTITLE18=Diego Verdaguer - Volveré
EXTD=
EXTT0=
EXTT1=
EXTT2=
EXTT3=
EXTT4=
EXTT5=
EXTT6=
EXTT7=
EXTT8=
EXTT9=
EXTT10=
EXTT11=
EXTT12=
EXTT13=
EXTT14=
EXTT15=
EXTT16=
EXTT17=
EXTT18=
PLAYORDER=
